<svg width="206" height="126" viewBox="0 0 206 126" fill="none" xmlns="http://www.w3.org/2000/svg">
<path d="M0.230469 72.5C0.230469 66.8333 1.73047 60 4.73047 52C8.0638 44 12.3971 36 17.7305 28C23.3971 20 29.7305 13.3333 36.7305 7.99998C43.7305 2.66666 51.0638 -6.91414e-06 58.7305 -6.91414e-06C65.3971 -6.91414e-06 71.0638 1.49999 75.7305 4.49999C80.3971 7.5 82.7305 12.6667 82.7305 20C82.7305 27.3333 80.2305 31.8333 75.2305 33.5C70.5638 35.1666 66.5638 36.8333 63.2305 38.5C58.8971 40.8333 55.3971 43.6667 52.7305 47C50.3971 50 49.2305 53.8333 49.2305 58.5C49.2305 61.8333 50.8971 65 54.2305 68C57.8971 71 62.5638 72.5 68.2305 72.5C70.2305 72.5 72.5638 72.3333 75.2305 72C77.8971 71.3333 80.2305 70.3333 82.2305 69C85.8971 70.3333 88.8971 72.3333 91.2305 75C93.5638 77.6667 94.7305 81.8333 94.7305 87.5C94.7305 94.8333 92.2305 101.333 87.2305 107C82.2305 112.667 76.0638 117.167 68.7305 120.5C61.3971 123.833 54.2305 125.5 47.2305 125.5C32.8971 125.5 21.3971 121 12.7305 112C4.39714 103 0.230469 89.8333 0.230469 72.5ZM110.73 72.5C110.73 66.8333 112.23 60 115.23 52C118.564 44 122.897 36 128.23 28C133.897 20 140.23 13.3333 147.23 7.99998C154.23 2.66666 161.564 -6.91414e-06 169.23 -6.91414e-06C175.897 -6.91414e-06 181.564 1.49999 186.23 4.49999C190.897 7.5 193.23 12.6667 193.23 20C193.23 27.3333 190.73 31.8333 185.73 33.5C181.064 35.1666 177.064 36.8333 173.73 38.5C169.397 40.8333 165.897 43.6667 163.23 47C160.897 50 159.73 53.8333 159.73 58.5C159.73 61.8333 161.397 65 164.73 68C168.397 71 173.064 72.5 178.73 72.5C180.73 72.5 183.064 72.3333 185.73 72C188.397 71.3333 190.73 70.3333 192.73 69C196.397 70.3333 199.397 72.3333 201.73 75C204.064 77.6667 205.23 81.8333 205.23 87.5C205.23 94.8333 202.73 101.333 197.73 107C192.73 112.667 186.564 117.167 179.23 120.5C171.897 123.833 164.73 125.5 157.73 125.5C143.397 125.5 131.897 121 123.23 112C114.897 103 110.73 89.8333 110.73 72.5Z" fill="#F1F1F1"/>
</svg>
